<?xml version="1.0" encoding="UTF-8" standalone="no"?>
<svg
   xmlns:dc="http://purl.org/dc/elements/1.1/"
   xmlns:cc="http://creativecommons.org/ns#"
   xmlns:rdf="http://www.w3.org/1999/02/22-rdf-syntax-ns#"
   xmlns:svg="http://www.w3.org/2000/svg"
   xmlns="http://www.w3.org/2000/svg"
   xmlns:xlink="http://www.w3.org/1999/xlink"
   version="1.1"
   id="svg815"
   xml:space="preserve"
   width="361"
   height="129.42435"
   viewBox="0 0 361 129.42435"><metadata
     id="metadata821"><rdf:RDF><cc:Work
         rdf:about=""><dc:format>image/svg+xml</dc:format><dc:type
           rdf:resource="http://purl.org/dc/dcmitype/StillImage" /><dc:title></dc:title></cc:Work></rdf:RDF></metadata><defs
     id="defs819"><color-profile
       id="color-profile912"
       xlink:href="/usr/share/color/icc/colord/sRGB.icc"
       name="sRGB" /></defs><g
     style="display:inline;opacity:0.4"
     id="layer1" /><g
     style="display:inline"
     transform="matrix(1.3333333,0,0,-1.3333333,36.500003,116.33851)"
     id="g823"><g
       transform="matrix(0.12534723,0,0,0.12534723,-27.375003,-9.8143823)"
       id="g825"><path
         id="path827"
         style="fill:#c4122e;fill-opacity:1;fill-rule:nonzero;stroke:none"
         d="m 1671.16,774.395 h 82.17 l 103.34,-126.309 103.43,126.168 h 77.35 l -136.89,-178.219 162.92,-220.82 h -81.82 L 1854.2,539.777 1726.64,375.363 h -77.39 l 160.19,216.532 -138.28,182.5" /><path
         id="path829"
         style="fill:#696566;fill-opacity:1;fill-rule:nonzero;stroke:none"
         d="m 1369.66,91.9258 c 77.41,0 114.69,44.9882 114.69,109.1292 0,66.367 -41.61,109.054 -121.27,109.054 H 1139.71 V 91.9258 Z m -17.29,304.6372 c 70.7,0 102.64,40.05 102.64,95.304 0,56.844 -31.18,94.199 -104.81,94.199 H 1139.71 V 396.563 Z m -318.29,282.421 h 324.76 c 133.83,0 201.12,-78.855 201.12,-177.507 0,-67.676 -36.01,-121.524 -102.13,-141.848 81.94,-18.856 132.48,-71.453 132.48,-166.727 C 1590.31,83.5156 1516.59,0 1374.59,0 h -340.51 v 678.984" /><path
         id="path831"
         style="fill:#696566;fill-opacity:1;fill-rule:nonzero;stroke:none"
         d="M 587.07,678.859 320.703,679 442.77,584.074 H 581.094 C 756.801,583.859 833.672,483.059 833.473,339.289 833.344,195.52 756.445,94.7578 580.676,94.8828 L 422.852,94.9727 422.895,168.008 316.031,116.641 315.953,0.175781 586.648,0.03125 C 809.285,-0.078125 944.176,138.547 944.309,339.25 944.402,539.863 808.746,678.723 587.07,678.859" /><path
         id="path833"
         style="fill:#c4122e;fill-opacity:1;fill-rule:nonzero;stroke:none"
         d="m 279.238,617.785 -11.246,-0.312 226.172,-248 L 0,59.3672 22.0039,59.0039 632.426,357.785 l -353.188,260" /><path
         id="path835"
         style="fill:#c4122e;fill-opacity:1;fill-rule:nonzero;stroke:none"
         d="m 2111.7,774.395 h 0.88 l 23.24,-25.219 23.3,25.219 h 0.88 v -48.516 h -9.45 v 28.012 l -14.73,-16.809 -14.45,16.809 v -28.012 h -9.67 z m -45.72,-9.051 v 8.41 h 36.42 v -8.41 h -13.17 v -39.465 h -9.66 v 39.465 h -13.59" /></g></g></svg>