<?xml version="1.0" encoding="UTF-8" standalone="no"?>
<svg xmlns="http://www.w3.org/2000/svg" xmlns:xlink="http://www.w3.org/1999/xlink" width="124.628" height="131.713" viewBox="0 0 124.628 131.713">
  <linearGradient id="d" x1="65.231" x2="58.715" y1="-17.408" y2="128.952" gradientUnits="userSpaceOnUse">
    <stop offset=".382" stop-color="#dcf0ff"/>
    <stop offset=".444" stop-color="#c9e6ff"/>
    <stop offset=".631" stop-color="#92caff"/>
    <stop offset=".793" stop-color="#6ab5ff"/>
    <stop offset=".921" stop-color="#52a9ff"/>
    <stop offset="1" stop-color="#49a4ff"/>
  </linearGradient>
  <linearGradient id="a">
    <stop offset="0" stop-color="#0032a4"/>
    <stop offset="1" stop-color="#3995e5"/>
  </linearGradient>
  <linearGradient id="e" x1="85.484" x2="8.945" y1="76.749" y2="47.166" gradientUnits="userSpaceOnUse" xlink:href="#a"/>
  <linearGradient id="f" x1="-22.023" x2="98.749" y1="36.993" y2="81.54" gradientUnits="userSpaceOnUse">
    <stop offset=".017" stop-color="#fff"/>
    <stop offset=".309" stop-color="#cff0ff"/>
    <stop offset=".635" stop-color="#6db8ff"/>
    <stop offset="1" stop-color="#1e65ff"/>
  </linearGradient>
  <linearGradient id="g" x1="820.53" x2="894.983" y1="-194.443" y2="-150.192" gradientTransform="matrix(.9427 -.3336 .3336 .9427 -702.6929 506.0522)" gradientUnits="userSpaceOnUse">
    <stop offset="0" stop-color="#d9d9d9"/>
    <stop offset="1" stop-color="#8c99c9"/>
  </linearGradient>
  <linearGradient id="h" x1="116.14" x2="175.726" y1="37.399" y2="45.802" gradientTransform="matrix(.9928 .1193 -.1193 .9928 -79.0716 .0346)" gradientUnits="userSpaceOnUse">
    <stop offset="0" stop-color="#fff"/>
    <stop offset="1" stop-color="#dfdfec"/>
  </linearGradient>
  <linearGradient id="i" x1="55.08" x2="98.925" y1="62.47" y2="81.071" gradientUnits="userSpaceOnUse">
    <stop offset=".146" stop-color="#6ac5ff"/>
    <stop offset=".254" stop-color="#61b3fa"/>
    <stop offset=".469" stop-color="#4886ec"/>
    <stop offset=".768" stop-color="#213dd7"/>
    <stop offset="1" stop-color="#0000c5"/>
  </linearGradient>
  <linearGradient id="b">
    <stop offset="0" stop-color="#cdf8ff"/>
    <stop offset="1" stop-color="#0056ff"/>
  </linearGradient>
  <linearGradient id="j" x1="48.565" x2="90.431" y1="68.683" y2="74.575" gradientUnits="userSpaceOnUse" xlink:href="#b"/>
  <linearGradient id="c">
    <stop offset="0" stop-color="#fff"/>
    <stop offset="1" stop-color="#b1b1c5"/>
  </linearGradient>
  <linearGradient id="k" x1="56.81" x2="121.188" y1="107.773" y2="76.748" gradientUnits="userSpaceOnUse" xlink:href="#c"/>
  <linearGradient id="l" x1="16.092" x2="116.859" y1="131.475" y2="76.539" gradientUnits="userSpaceOnUse" xlink:href="#c"/>
  <linearGradient id="m" x1="57.196" x2="121.482" y1="105.095" y2="74.114" gradientUnits="userSpaceOnUse" xlink:href="#c"/>
  <linearGradient id="n" x1="98.721" x2="52.721" y1="80.361" y2="62.582" gradientUnits="userSpaceOnUse" xlink:href="#a"/>
  <linearGradient id="o" x1="56.999" x2="98.865" y1="8.754" y2="14.646" gradientUnits="userSpaceOnUse" xlink:href="#b"/>
  <path fill="url(#d)" fill-rule="evenodd" d="m100.155 27.424c-2.629-9.263-4.355-16.555-4.775-17.999-.605-2.082-2.324-2.45-3.891-1.493-2.004 1.227-45.74 25.561-45.74 25.561s-3.469 2.492-7.072 1.264c-3.6-1.231-7.215-7.522-13.402-4.884-4.748 2.026-10.73 5.412-16.306 9.1-7.002 4.631-2.341 10.637-2.664 14.347-.287 3.28-5.03 5.204-5.03 5.204s6.712 17.963 14.935 35.508c8.222 17.543 21.085 36.104 21.085 36.104.312.441.863 1.21 2.23.65 1.95-.794 78.554-52.095 81.121-53.47.463-.247.775-.594.988-.938-2.408-4.28-4.805-8.814-6.898-13.286-8.225-17.544-14.799-35.565-14.581-35.668z" clip-rule="evenodd"/>
  <path fill="#fff" fill-rule="evenodd" d="m100.155 27.424c-2.629-9.263-4.355-16.555-4.775-17.999-.605-2.082-2.324-2.45-3.891-1.493-2.004 1.227-45.74 25.561-45.74 25.561s-3.469 2.492-7.072 1.264c-3.6-1.231-7.215-7.522-13.402-4.884-4.748 2.026-10.73 5.412-16.306 9.1-7.002 4.631-2.341 10.637-2.664 14.347-.287 3.28-5.03 5.204-5.03 5.204s6.712 17.963 14.935 35.508c8.222 17.543 21.085 36.104 21.085 36.104.312.441.863 1.21 2.23.65 1.95-.794 78.554-52.095 81.121-53.47.463-.247.775-.594.988-.938-2.408-4.28-4.805-8.814-6.898-13.286-8.225-17.544-14.799-35.565-14.581-35.668z" clip-rule="evenodd"/>
  <path fill="url(#e)" d="m90.968 7.079c-1.964 1.202-45.267 25.296-45.705 25.54-.125.082-3.207 2.233-6.264 1.191-.974-.333-2.055-1.181-3.198-2.078-2.736-2.146-6.14-4.817-10.919-2.779-4.62 1.972-10.621 5.32-16.465 9.186-5.625 3.721-4.467 8.412-3.621 11.837.303 1.225.588 2.382.512 3.258-.191 2.179-3.249 3.89-4.412 4.365l-.896.366.338.909c.067.18 6.82 18.202 14.966 35.583 8.163 17.417 21.039 36.062 21.168 36.249.33.468 1.32 1.871 3.431 1.007 1.086-.442 19.178-12.441 46.655-30.696 16.446-10.926 33.451-22.225 34.56-22.817.56-.3 1.02-.734 1.366-1.293l.311-.502-.29-.515c-2.667-4.74-4.976-9.188-6.864-13.22-7.764-16.563-14.239-34.036-14.501-35.355l-.008-.04-.015-.124c-1.824-6.429-3.206-11.879-4.032-15.135l-.745-2.87c-.459-1.58-1.39-2.234-2.089-2.505-1.013-.393-2.179-.237-3.283.438zm1.044 1.706c.552-.337 1.104-.439 1.517-.28.506.196.764.76.892 1.199l.727 2.803c.828 3.267 2.215 8.734 4.047 15.189 0 0 .016-.035.017-.038.19 1.257 1.269 4.14 4.139 11.425 1.914 4.857 5.82 14.491 10.481 24.434 1.818 3.884 4.045 8.164 6.576 12.695-.081.067-.137.171-.231.222-1.192.639-16.731 10.962-34.723 22.915-20.018 13.299-44.929 29.85-46.326 30.52-.618.253-.733.088-1.015-.31-.123-.179-12.906-18.69-20.997-35.953-7.104-15.153-13.144-30.8-14.58-34.575 1.526-.795 4.51-2.708 4.766-5.624.014-.158.02-.317.02-.478 0-1.073-.284-2.225-.583-3.434-.326-1.319-.656-2.655-.656-3.972 0-1.995.758-3.945 3.438-5.718 5.748-3.802 11.633-7.087 16.146-9.014 3.69-1.574 6.341.505 8.899 2.513 1.281 1.005 2.49 1.954 3.787 2.397 3.885 1.323 7.495-1.061 7.919-1.357 2.102-1.167 43.749-24.341 45.74-25.559z"/>
  <path fill="url(#f)" d="m97.971 30.834c-2.447-8.622-4.054-15.405-4.447-16.751-.562-1.936-2.164-2.279-3.62-1.388-1.864 1.141-42.564 23.786-42.564 23.786s-3.228 2.318-6.581 1.176c-3.352-1.146-6.715-7-12.474-4.545-4.418 1.885-9.985 5.036-15.173 8.468-6.515 4.31-2.177 9.898-2.479 13.351-.267 3.052-4.682 4.843-4.682 4.843s6.247 16.716 13.899 33.043c7.651 16.324 19.62 33.598 19.62 33.598.292.411.803 1.126 2.076.605 1.816-.74 73.099-48.479 75.489-49.761.43-.227.719-.548.918-.869-2.24-3.983-4.47-8.203-6.419-12.363-7.651-16.327-13.77-33.097-13.563-33.193z"/>
  <path fill="#000030" d="m105.354 73.485-23.558-67.191-66.964 47.005 25.719 72.7z" opacity=".1"/>
  <path fill="url(#g)" d="m85.604 0c-.272-.082-.568-.03-.8.134l-66.965 47.006c-.329.232-.468.644-.34 1.008l25.721 72.699c.099.28.34.487.639.553.298.066.614-.021.837-.231l64.799-52.515c.258-.238.351-.601.24-.922l-23.559-67.194c-.089-.258-.3-.456-.572-.538z"/>
  <path fill="#fff" d="m106.947 67.036-22.293-63.599-63.598 44.447 24.205 68.417z"/>
  <path fill="url(#h)" d="m102.492 67.001-20.138-57.466-56.298 39.517 21.622 61.118z"/>
  <path fill="url(#i)" d="m39.664 130.345c1.953-.797 78.552-52.097 81.125-53.473 1.326-.708 1.457-2.229 1.457-2.229s-1.002-10.269-1.002-25.285c0-12.663 1.417-24.734 2.099-29.454-.221-1.448-.414-2.704-.573-3.708-.198-.065-.416-.088-.644-.08-18.272 73.562-54.772 28.562-84.066 111.891-.206.586-.2 1.337-.173 2.159.326.334.871.549 1.777.179z" opacity=".5"/>
  <path fill="url(#j)" d="m37.424 129.234s.384-15.294 1.776-28.712c1.218-11.731 3.52-20.063 5.466-23.585 1.82-3.295 16.958-11.766 20.473-14.765 3.516-2.998 3.334-11.399 4.445-13.641 1.111-2.24 4.143-3.693 4.143-3.693s44.271-26.433 47.066-28.293c1.348-.899 3.232-.454 2.854 1.451-.357 1.776-2.404 16.148-2.404 31.362 0 15.017 1.002 25.285 1.002 25.285s-.131 1.521-1.457 2.229c-2.572 1.376-79.171 52.676-81.125 53.473-1.952.797-2.239-1.111-2.239-1.111z" opacity=".6"/>
  <path fill="#fff" d="m47.132 78.909c1.821-3.295 16.96-11.765 20.474-14.764 3.516-2.997 3.334-11.399 4.447-13.641 1.109-2.24 4.141-3.692 4.141-3.692s44.271-26.434 47.066-28.294c.104-.069.213-.115.32-.168.025-.143.047-.269.066-.354.379-1.905-1.506-2.351-2.854-1.451-2.795 1.861-47.066 28.293-47.066 28.293s-3.031 1.454-4.143 3.693c-1.111 2.242-.93 10.643-4.445 13.641-3.515 2.999-18.653 11.47-20.473 14.765-1.946 3.521-4.248 11.854-5.466 23.585-1.393 13.418-1.776 28.712-1.776 28.712s.287 1.907 2.239 1.11c.045-.019.14-.071.257-.138.111-3.603.567-16.33 1.748-27.711 1.218-11.73 3.52-20.063 5.465-23.586z"/>
  <path fill="url(#k)" d="m37.927 117.278c-.374 6.873-.503 11.956-.503 11.956s.287 1.907 2.239 1.11c1.953-.797 78.552-52.097 81.125-53.473 1.326-.708 1.457-2.229 1.457-2.229s-.457-4.688-.752-12.353c-7.881 4.958-81.241 54.069-83.183 54.86-.135.058-.261.098-.383.129z"/>
  <path fill="url(#l)" d="m37.927 117.278c-.374 6.873-.503 11.956-.503 11.956s.287 1.907 2.239 1.11c1.953-.797 78.552-52.097 81.125-53.473 1.326-.708 1.457-2.229 1.457-2.229s-.457-4.688-.752-12.353c-7.881 4.958-81.241 54.069-83.183 54.86-.135.058-.261.098-.383.129z"/>
  <path fill="url(#m)" d="m38.635 115.524c-.374 6.873-1.211 10.142-1.211 10.142s.287 1.906 2.239 1.11c1.953-.798 78.552-52.097 81.125-53.473 1.326-.709 1.457-2.229 1.457-2.229s.252-2.873-.045-10.538c-8.312 6.657-83.443 54.957-83.565 54.988z"/>
  <path fill="url(#n)" d="m120.239 15.714c-2.742 1.825-46.582 28.002-47.024 28.267-.056.022-3.275 1.588-4.525 4.107-.438.883-.666 2.322-.956 4.144-.497 3.131-1.178 7.419-3.242 9.18-1.254 1.069-4.208 2.967-7.335 4.977-7.083 4.551-12.188 7.937-13.365 10.065-1.843 3.336-4.279 11.383-5.585 23.965-1.381 13.304-1.777 28.637-1.781 28.79l-.002.088.013.086c.02.131.221 1.295 1.227 1.866.463.264 1.252.481 2.379.021 1.087-.443 19.117-12.401 46.5-30.595 16.521-10.977 33.604-22.326 34.718-22.922 1.424-.761 1.916-2.259 1.981-3.024l.008-.092-.009-.091c-.01-.103-.997-10.4-.997-25.188 0-15.478 2.088-29.688 2.385-31.165.228-1.144-.116-2.113-.946-2.67-.945-.63-2.329-.554-3.444.191zm-80.044 84.912c1.276-12.297 3.678-20.186 5.346-23.205 1.023-1.851 7.77-6.185 12.695-9.35 3.325-2.136 6.196-3.98 7.552-5.138 2.626-2.24 3.344-6.758 3.92-10.388.241-1.522.47-2.96.771-3.569.941-1.897 3.653-3.224 3.681-3.236 1.888-1.123 44.403-26.509 47.187-28.362.468-.312.998-.342 1.223-.192.098.065.127.201.127.339 0 .1-.016.2-.03.276-.302 1.5-2.424 15.92-2.424 31.557 0 14.421.927 24.527.995 25.253-.025.176-.178.981-.921 1.379-1.198.641-16.809 11.012-34.883 23.02-19.949 13.255-44.777 29.75-46.17 30.418-.317.13-.527.13-.611.084-.104-.058-.19-.251-.226-.393.038-1.37.456-15.845 1.768-28.493z"/>
  <path fill="url(#o)" d="m123.647 17.997c.199-1.002-.233-1.589-.879-1.8.159 1.005.353 2.26.573 3.708.138-.951.247-1.611.306-1.908z" opacity=".6"/>
</svg>
